<?xml version="1.0" ?><!-- Generator: Adobe Illustrator 13.0.2, SVG Export Plug-In . SVG Version: 6.00 Build 14948)  --><!DOCTYPE svg  PUBLIC '-//W3C//DTD SVG 1.1//EN'  'http://www.w3.org/Graphics/SVG/1.1/DTD/svg11.dtd' [
	<!ENTITY fill_color "#A0A2A4">
	<!ENTITY stroke_color "#808284">
]><svg enable-background="new 0 0 55.125 55" height="55px" id="Layer_1" version="1.1" viewBox="0 0 55 55" width="55px" x="0px" xml:space="preserve" xmlns="http://www.w3.org/2000/svg" xmlns:xlink="http://www.w3.org/1999/xlink" y="0px">
  <g
     transform="translate(3.5,-1)">
    <path
       d="m 3,25 12.5,0 0,22 L 3,47 z"
       style="fill:&stroke_color;;fill-opacity:1;stroke:&stroke_color;;stroke-width:2.5;stroke-linecap:butt;stroke-linejoin:miter;stroke-miterlimit:4;stroke-opacity:1;stroke-dasharray:none" />
    <path
       d="m 15.5,28 6,-2.5 1.5,-1.5 7.5,-15 4.75,0 0,4.410117 -0.487457,2.50095 0.474914,7.410224 L 42.697031,23.5 45,25.5 45,44 l -4,4 -14,0 -4.5,-3.5 -7,0 z"
       style="fill:#ffffff;fill-opacity:1;stroke:&stroke_color;;stroke-width:2.5;stroke-linecap:butt;stroke-linejoin:miter;stroke-miterlimit:4;stroke-opacity:1;stroke-dasharray:none" />
    <rect
       width="11"
       height="4"
       x="3.75"
       y="25.619982"
       style="fill:&fill_color;;fill-opacity:1;fill-rule:nonzero;stroke:none" />
    <path
       d="m 16.25,40.25 8,0 2.5,2 13.5,0 4,-3.75 0,5.25 -3.5,3.5 -13.5,0 -4.5,-3.5 -6.5,0 z"
       style="fill:&fill_color;;fill-opacity:1;stroke:none" />
    <path
       d="M 34.5,24 31,23 32,14.5 34.482668,9.7783694 34.486519,13.421674 34,16 z"
       style="fill:&fill_color;;fill-opacity:1;stroke:none" />
  </g>
</svg>
